<?xml version="1.0" encoding="utf-8"?>
<svg version="1.1" id="Layer_1"
xmlns="http://www.w3.org/2000/svg"
xmlns:xlink="http://www.w3.org/1999/xlink"
width="256px" height="256px"
xml:space="preserve">
<g id="PathID_9" transform="matrix(1.3913, 0, 0, 1.3913, 127.3, 128.7)" opacity="1">
<path style="fill:#FF9901;fill-opacity:1" d="M90.95 88Q90.95 88.8 90.4 89.35Q89.85 89.9 89.05 89.9L-88 89.9Q-88.8 89.9 -89.35 89.35Q-89.9 88.8 -89.9 88L-89.9 -89.2Q-89.9 -90 -89.35 -90.55Q-88.8 -91.1 -88 -91.1L89.05 -91.1Q89.85 -91.1 90.4 -90.55Q90.95 -90 90.95 -89.2L90.95 88" />
</g>
<g id="PathID_10" transform="matrix(1.3913, 0, 0, 1.3913, 127.3, 128.7)" opacity="1">
</g>
<g id="PathID_11" transform="matrix(0.892183, 0, 0, 0.892183, 118.4, 63.5)" opacity="1">
<path style="fill:#FFFFFF;fill-opacity:1" d="M130.45 38.4L110.3 50.05L130.45 61.6L127.1 68.55L102.7 54.75L70.85 72.65L102.7 90.55L127.1 76.75L130.45 83.1L110.3 95.25L130.45 106.9L127.1 113.75L106.2 101.75L106.2 125.4L98.75 125.4L98.75 97.65L67.4 79.15L67.4 115.55L91.8 129.5L88.3 135.7L67.4 124.35L67.4 148L59.95 148L59.95 124.35L39.05 135.7L35.55 129.5L59.95 115.55L59.95 79.15L28.6 97.65L28.6 125.4L20.55 125.4L20.55 101.75L0.25 113.75L-3.85 106.9L17.05 95.25L-3.85 83.1L0.25 76.75L24.65 90.55L55.7 72.65L24.65 54.75L0.25 68.55L-3.85 61.6L17.05 50.05L-3.85 38.4L0.25 31.6L20.55 43.7L20.55 19.9L28.6 19.9L28.6 47.8L59.95 66.3L59.95 29.9L35.55 15.8L39.05 9L59.95 21.1L59.95 -2.7L67.4 -2.7L67.4 21.1L87.7 9L91.8 15.8L67.4 29.9L67.4 66.3L98.75 47.8L98.75 19.9L106.2 19.9L106.2 43.7L127.1 31.6L130.45 38.4" />
</g>
<g id="PathID_12" transform="matrix(0.892183, 0, 0, 0.892183, 118.4, 63.5)" opacity="1">
</g>
<g id="PathID_13" transform="matrix(5.23812, 0, 0, 5.3489, 7.65, 35.5)" opacity="1">
<path style="fill:#FFFFFF;fill-opacity:1" d="M10.25 18Q10.25 18.35 10.15 18.45Q10.05 18.6 9.9 18.6L2.6 18.6Q2.45 18.6 2.35 18.45Q2.25 18.3 2.25 18Q2.25 17.65 2.35 17.55Q2.45 17.4 2.6 17.4L9.9 17.4L10.05 17.45L10.15 17.55L10.2 17.75L10.25 18" />
</g>
<g id="PathID_14" transform="matrix(5.23812, 0, 0, 5.3489, 7.65, 35.5)" opacity="1">
</g>
<g id="PathID_15" transform="matrix(5.23812, 0, 0, 5.3489, 7.65, 35.5)" opacity="1">
<path style="fill:#FFFFFF;fill-opacity:1" d="M20.35 17.4L20.35 17.7L20.25 17.9Q20.25 18 20.15 18.05L20.05 18.15L10.7 22.85L10.55 22.95L10.4 22.9L10.35 22.7L10.35 22.3L10.35 21.9L10.4 21.65L10.5 21.5L10.7 21.35L18.75 17.4L10.7 13.45L10.5 13.3L10.4 13.15L10.35 12.9L10.35 12.5L10.35 12.15L10.4 11.95Q10.45 11.85 10.55 11.9L10.7 11.95L20.1 16.7L20.3 16.95L20.35 17.4" />
</g>
<g id="PathID_16" transform="matrix(5.23812, 0, 0, 5.3489, 7.65, 35.5)" opacity="1">
</g>
</svg>
